<svg width="74" height="24" fill="none" xmlns="http://www.w3.org/2000/svg"><path d="M30.368 18V5.652h6.426c.888 0 1.626.168 2.214.504.6.324 1.05.786 1.35 1.386.312.588.468 1.29.468 2.106 0 .816-.162 1.53-.486 2.142a3.327 3.327 0 0 1-1.386 1.404c-.612.336-1.362.504-2.25.504H33.05V18h-2.682zm2.682-6.498h3.294c.564 0 .996-.162 1.296-.486.312-.324.468-.774.468-1.35 0-.396-.066-.726-.198-.99a1.393 1.393 0 0 0-.594-.612c-.252-.144-.576-.216-.972-.216H33.05v3.654zm9.354-4.356v-2.16h2.502v2.16h-2.502zm0 10.854V8.532h2.502V18h-2.502zm3.809 0l3.438-4.914-3.186-4.554h3.006l1.8 2.844h.09l1.818-2.844h2.826L52.8 13.068 56.185 18h-2.952l-2.052-3.222h-.09L49.039 18h-2.826zm15.083.216c-1.044 0-1.92-.174-2.628-.522a3.534 3.534 0 0 1-1.602-1.638c-.36-.732-.54-1.662-.54-2.79 0-1.14.18-2.07.54-2.79.36-.732.888-1.272 1.584-1.62.708-.36 1.572-.54 2.592-.54.96 0 1.77.174 2.43.522.66.336 1.158.864 1.494 1.584.336.708.504 1.626.504 2.754v.648h-6.606c.024.552.108 1.02.252 1.404.156.384.39.672.702.864.324.18.75.27 1.278.27.288 0 .546-.036.774-.108.24-.072.444-.18.612-.324.168-.144.3-.324.396-.54a1.8 1.8 0 0 0 .144-.738h2.448c0 .6-.108 1.122-.324 1.566a3.14 3.14 0 0 1-.9 1.116c-.384.288-.846.51-1.386.666a6.701 6.701 0 0 1-1.764.216zM59.1 12.24h3.996c0-.36-.048-.672-.144-.936a1.688 1.688 0 0 0-.36-.648 1.308 1.308 0 0 0-.576-.36 2.025 2.025 0 0 0-.738-.126c-.456 0-.84.078-1.152.234-.3.144-.534.372-.702.684-.156.3-.264.684-.324 1.152zM67.505 18V8.532h2.07l.198 1.476h.127a3.37 3.37 0 0 1 .468-.846 2.13 2.13 0 0 1 .72-.63 2.084 2.084 0 0 1 1.008-.234c.203 0 .39.024.557.072.168.036.294.072.378.108v2.268h-.774c-.372 0-.702.054-.99.162-.275.096-.51.252-.701.468-.192.216-.337.48-.433.792a4.251 4.251 0 0 0-.126 1.098V18h-2.502z" fill="#fff"/><g clip-path="url(#clip0_1_27)"><path d="M19.97 8.496c-.77-.375-1.96-.385-3.45-.364-1.274.021-2.142.075-2.442.086-1.2.043-1.821.75-1.993 1.189-.171.44-1.157 3.354-1.232 3.996-.107.825.107 1.404 1.136 1.404 1.564 0 5.539-5.454 7.446-5.925.782-.193 1.082.096 1.318.45-.064-.3-.31-.61-.782-.836z" fill="url(#paint0_linear_1_27)"/><path d="M11.699 14.775c-.782-.097-.943-.643-.847-1.382.086-.632 1.093-3.536 1.233-3.997 1.242-3.985 1.692-7.125 1.757-7.414.471-2.036-1.693-3.021-3.46-.418-1.447 2.143-6.74 9.825-7.233 10.832-.429.868 0 2.379 1.554 2.379h6.996z" fill="url(#paint1_linear_1_27)"/><path d="M11.718 14.775c.322.032.536.021.954-.225 1.832-1.05 5.089-5.271 6.76-5.69.793-.203 1.104.13 1.297.408.61.9.085 2.003-.46 2.84-3.472 5.25-6.622 9.46-8.069 11.185-1.103 1.318-3.235.932-2.453-1.543.235-.771 1.971-6.975 1.971-6.975z" fill="url(#paint2_linear_1_27)"/></g><defs><linearGradient id="paint0_linear_1_27" x1="17.021" y1="8.461" x2="11.784" y2="16.055" gradientUnits="userSpaceOnUse"><stop offset=".23" stop-color="#3BCC95"/><stop offset="1" stop-color="#085F3E"/></linearGradient><linearGradient id="paint1_linear_1_27" x1="6.167" y1="17.91" x2="9.894" y2="4.994" gradientUnits="userSpaceOnUse"><stop offset=".175" stop-color="#02603D"/><stop offset=".462" stop-color="#11A56D"/><stop offset=".71" stop-color="#24B47E"/><stop offset=".891" stop-color="#28C98D"/></linearGradient><linearGradient id="paint2_linear_1_27" x1="13.369" y1="14.806" x2="16.509" y2="17.47" gradientUnits="userSpaceOnUse"><stop stop-color="#088E5C"/><stop offset=".263" stop-color="#179B69"/><stop offset=".671" stop-color="#24B47E"/><stop offset=".891" stop-color="#24B47E"/></linearGradient><clipPath id="clip0_1_27"><path fill="#fff" d="M0 0h24v24H0z"/></clipPath></defs></svg>